# Blender 4.1.1
# www.blender.org
mtllib stairs.mtl
o stairs
v 644.055542 15.222302 -581.852356
v 644.055542 15.515919 -581.852356
v 640.757690 19.044550 -584.916626
v 640.757690 19.338165 -584.916626
v 644.829529 15.222302 -582.685242
v 644.829529 15.515919 -582.685242
v 641.531677 19.044550 -585.749573
v 641.531677 19.338165 -585.749573
v 639.746277 19.338165 -585.856384
v 639.746277 19.044550 -585.856384
v 640.520264 19.044550 -586.689331
v 640.520264 19.338165 -586.689331
v 640.036865 19.338165 -584.140869
v 640.036865 19.044550 -584.140869
v 639.025452 19.338165 -585.080627
v 639.025452 19.044550 -585.080627
v 644.735840 19.338165 -581.220215
v 644.735840 19.044550 -581.220215
v 644.015015 19.338165 -580.444458
v 644.015015 19.044550 -580.444458
v 643.321594 19.338165 -581.088806
v 644.042419 19.338165 -581.864563
v 643.321594 19.044550 -581.088806
v 644.042419 19.044550 -581.864563
v 645.510010 19.338165 -582.053345
v 645.510010 19.044550 -582.053345
v 644.816589 19.044550 -582.697693
v 644.816589 19.338165 -582.697693
v 644.055542 19.338165 -581.852356
v 644.055542 19.631783 -581.852356
v 640.757690 23.160412 -584.916626
v 640.757690 23.454029 -584.916626
v 644.829529 19.338165 -582.685242
v 644.829529 19.631783 -582.685242
v 641.531677 23.160412 -585.749573
v 641.531677 23.454029 -585.749573
v 639.746277 23.454029 -585.856384
v 639.746277 23.160412 -585.856384
v 640.520264 23.160412 -586.689331
v 640.520264 23.454029 -586.689331
v 640.036865 23.454029 -584.140869
v 640.036865 23.160412 -584.140869
v 639.025452 23.454029 -585.080627
v 639.025452 23.160412 -585.080627
v 644.735840 23.454029 -581.220215
v 644.735840 23.160412 -581.220215
v 644.015015 23.454029 -580.444458
v 644.015015 23.160412 -580.444458
v 643.321594 23.454029 -581.088806
v 644.042419 23.454029 -581.864563
v 643.321594 23.160412 -581.088806
v 644.042419 23.160412 -581.864563
v 645.510010 23.454029 -582.053345
v 645.510010 23.160412 -582.053345
v 644.816589 23.160412 -582.697693
v 644.816589 23.454029 -582.697693
v 644.055542 23.454029 -581.852356
v 644.055542 23.747644 -581.852356
v 640.757690 27.276276 -584.916626
v 640.757690 27.569891 -584.916626
v 644.829529 23.454029 -582.685242
v 644.829529 23.747644 -582.685242
v 641.531677 27.276276 -585.749573
v 641.531677 27.569891 -585.749573
v 639.746277 27.569891 -585.856384
v 639.746277 27.276276 -585.856384
v 640.520264 27.276276 -586.689331
v 640.520264 27.569891 -586.689331
v 640.036865 27.569891 -584.140869
v 640.036865 27.276276 -584.140869
v 639.025452 27.569891 -585.080627
v 639.025452 27.276276 -585.080627
v 644.735840 27.569891 -581.220215
v 644.735840 27.276276 -581.220215
v 644.015015 27.569891 -580.444458
v 644.015015 27.276276 -580.444458
v 643.321594 27.569891 -581.088806
v 644.042419 27.569891 -581.864563
v 643.321594 27.276276 -581.088806
v 644.042419 27.276276 -581.864563
v 645.510010 27.569891 -582.053345
v 645.510010 27.276276 -582.053345
v 644.816589 27.276276 -582.697693
v 644.816589 27.569891 -582.697693
vn -0.6806 -0.0000 0.7326
vn 0.6807 -0.0000 -0.7326
vn 0.6806 -0.0000 -0.7326
vn 0.7326 -0.0000 0.6807
vn -0.4741 -0.7623 -0.4406
vn 0.4741 0.7623 0.4406
vn -0.7326 -0.0000 -0.6807
vn -0.0000 -1.0000 -0.0000
vn -0.0000 1.0000 -0.0000
vn -0.6807 -0.0000 0.7326
vn -0.6807 -0.0000 0.7325
vn 0.6807 -0.0000 -0.7325
vn -0.6808 -0.0000 0.7325
vt 0.375000 0.000000
vt 0.625000 0.000000
vt 0.625000 0.250000
vt 0.375000 0.250000
vt 0.625000 0.500000
vt 0.375000 0.500000
vt 0.625000 0.750000
vt 0.375000 0.750000
vt 0.625000 1.000000
vt 0.375000 1.000000
vt 0.125000 0.500000
vt 0.125000 0.750000
vt 0.875000 0.500000
vt 0.875000 0.750000
s 0
f 1/1/1 2/2/1 4/3/1 3/4/1
f 8/5/2 7/6/2 11/6/2 12/5/2
f 7/6/3 8/5/3 6/7/3 5/8/3
f 5/8/4 6/7/4 2/9/4 1/10/4
f 3/11/5 7/6/5 5/8/5 1/12/5
f 8/5/6 4/13/6 2/14/6 6/7/6
f 10/4/7 9/3/7 12/5/7 11/6/7
f 7/6/8 3/11/8 10/11/8 11/6/8
f 4/13/9 8/5/9 12/5/9 9/13/9
f 9/3/7 10/4/7 16/4/7 15/3/7
f 14/4/10 13/3/10 15/3/10 16/4/10
f 4/13/9 9/13/9 15/13/9 13/13/9
f 10/11/8 3/11/8 14/11/8 16/11/8
f 22/13/9 21/13/9 19/13/9 17/13/9
f 18/4/4 17/3/4 19/3/4 20/4/4
f 21/3/10 23/4/10 20/4/10 19/3/10
f 23/11/8 24/11/8 18/11/8 20/11/8
f 17/3/4 18/4/4 26/4/4 25/3/4
f 3/4/2 4/3/2 22/3/2 24/4/2
f 14/11/8 3/11/8 24/11/8 23/11/8
f 13/3/10 14/4/10 23/4/10 21/3/10
f 4/13/9 13/13/9 21/13/9 22/13/9
f 27/4/2 28/3/2 25/3/2 26/4/2
f 22/13/9 17/13/9 25/13/9 28/13/9
f 18/11/8 24/11/8 27/11/8 26/11/8
f 24/4/7 22/3/7 28/3/7 27/4/7
f 29/1/11 30/2/11 32/3/11 31/4/11
f 36/5/2 35/6/2 39/6/2 40/5/2
f 35/6/12 36/5/12 34/7/12 33/8/12
f 33/8/4 34/7/4 30/9/4 29/10/4
f 31/11/5 35/6/5 33/8/5 29/12/5
f 36/5/6 32/13/6 30/14/6 34/7/6
f 38/4/7 37/3/7 40/5/7 39/6/7
f 35/6/8 31/11/8 38/11/8 39/6/8
f 32/13/9 36/5/9 40/5/9 37/13/9
f 37/3/7 38/4/7 44/4/7 43/3/7
f 42/4/10 41/3/10 43/3/10 44/4/10
f 32/13/9 37/13/9 43/13/9 41/13/9
f 38/11/8 31/11/8 42/11/8 44/11/8
f 50/13/9 49/13/9 47/13/9 45/13/9
f 46/4/4 45/3/4 47/3/4 48/4/4
f 49/3/10 51/4/10 48/4/10 47/3/10
f 51/11/8 52/11/8 46/11/8 48/11/8
f 45/3/4 46/4/4 54/4/4 53/3/4
f 31/4/2 32/3/2 50/3/2 52/4/2
f 42/11/8 31/11/8 52/11/8 51/11/8
f 41/3/10 42/4/10 51/4/10 49/3/10
f 32/13/9 41/13/9 49/13/9 50/13/9
f 55/4/2 56/3/2 53/3/2 54/4/2
f 50/13/9 45/13/9 53/13/9 56/13/9
f 46/11/8 52/11/8 55/11/8 54/11/8
f 52/4/7 50/3/7 56/3/7 55/4/7
f 57/1/13 58/2/13 60/3/13 59/4/13
f 64/5/2 63/6/2 67/6/2 68/5/2
f 63/6/2 64/5/2 62/7/2 61/8/2
f 61/8/4 62/7/4 58/9/4 57/10/4
f 59/11/5 63/6/5 61/8/5 57/12/5
f 64/5/6 60/13/6 58/14/6 62/7/6
f 66/4/7 65/3/7 68/5/7 67/6/7
f 63/6/8 59/11/8 66/11/8 67/6/8
f 60/13/9 64/5/9 68/5/9 65/13/9
f 65/3/7 66/4/7 72/4/7 71/3/7
f 70/4/10 69/3/10 71/3/10 72/4/10
f 60/13/9 65/13/9 71/13/9 69/13/9
f 66/11/8 59/11/8 70/11/8 72/11/8
f 78/13/9 77/13/9 75/13/9 73/13/9
f 74/4/4 73/3/4 75/3/4 76/4/4
f 77/3/10 79/4/10 76/4/10 75/3/10
f 79/11/8 80/11/8 74/11/8 76/11/8
f 73/3/4 74/4/4 82/4/4 81/3/4
f 59/4/2 60/3/2 78/3/2 80/4/2
f 70/11/8 59/11/8 80/11/8 79/11/8
f 69/3/10 70/4/10 79/4/10 77/3/10
f 60/13/9 69/13/9 77/13/9 78/13/9
f 83/4/2 84/3/2 81/3/2 82/4/2
f 78/13/9 73/13/9 81/13/9 84/13/9
f 74/11/8 80/11/8 83/11/8 82/11/8
f 80/4/7 78/3/7 84/3/7 83/4/7
