{
    "asset" : {
        "generator" : "Khronos glTF Blender I/O v1.6.16",
        "version" : "2.0"
    },
    "scene" : 0,
    "scenes" : [
        {
            "name" : "Scene",
            "nodes" : [
                0
            ]
        }
    ],
    "nodes" : [
        {
            "mesh" : 0,
            "name" : "Terrain"
        }
    ],
    "meshes" : [
        {
            "name" : "Terrain.001",
            "primitives" : [
                {
                    "attributes" : {
                        "POSITION" : 0,
                        "NORMAL" : 1
                    },
                    "indices" : 2
                }
            ]
        }
    ],
    "accessors" : [
        {
            "bufferView" : 0,
            "componentType" : 5126,
            "count" : 1296,
            "max" : [
                397.04168701171875,
                13,
                405.05206298828125
            ],
            "min" : [
                -404.66259765625,
                0,
                -398.9414367675781
            ],
            "type" : "VEC3"
        },
        {
            "bufferView" : 1,
            "componentType" : 5126,
            "count" : 1296,
            "type" : "VEC3"
        },
        {
            "bufferView" : 2,
            "componentType" : 5123,
            "count" : 7332,
            "type" : "SCALAR"
        }
    ],
    "bufferViews" : [
        {
            "buffer" : 0,
            "byteLength" : 15552,
            "byteOffset" : 0
        },
        {
            "buffer" : 0,
            "byteLength" : 15552,
            "byteOffset" : 15552
        },
        {
            "buffer" : 0,
            "byteLength" : 14664,
            "byteOffset" : 31104
        }
    ],
    "buffers" : [
        {
            "byteLength" : 45768,
            "uri" : "data:application/octet-stream;base64,"
        }
    ]
}
